<svg width="26" height="25" viewBox="0 0 26 25" fill="none" xmlns="http://www.w3.org/2000/svg">
<path d="M25.4628 0.28731C25.294 0.120067 25.0659 0.0262451 24.8283 0.0262451C24.5906 0.0262451 24.3625 0.120067 24.1937 0.28731L18.5939 5.89825L17.9927 5.29708C17.6628 4.96585 17.2706 4.70304 16.8389 4.52371C16.4071 4.34439 15.9442 4.25208 15.4767 4.25208C15.0092 4.25208 14.5462 4.34439 14.1145 4.52371C13.6827 4.70304 13.2906 4.96585 12.9607 5.29708L10.1329 8.12481L9.87688 7.85762C9.70384 7.7156 9.48416 7.64302 9.26056 7.654C9.03697 7.66499 8.82545 7.75874 8.66716 7.91704C8.50886 8.07533 8.41511 8.28685 8.40413 8.51044C8.39314 8.73403 8.46572 8.95372 8.60774 9.12676L8.87493 9.38282L6.0472 12.2106C5.71598 12.5405 5.45316 12.9326 5.27384 13.3644C5.09451 13.7961 5.0022 14.259 5.0022 14.7266C5.0022 15.1941 5.09451 15.657 5.27384 16.0888C5.45316 16.5205 5.71598 16.9126 6.0472 17.2426L6.64837 17.8438L1.03743 23.4436C0.870189 23.6124 0.776367 23.8405 0.776367 24.0781C0.776367 24.3158 0.870189 24.5438 1.03743 24.7127C1.20767 24.8773 1.4352 24.9693 1.672 24.9693C1.9088 24.9693 2.13634 24.8773 2.30657 24.7127L7.90638 19.1018L8.50755 19.7029C9.17683 20.3665 10.0811 20.7388 11.0236 20.7388C11.966 20.7388 12.8703 20.3665 13.5396 19.7029L16.3673 16.8752L16.6234 17.1424C16.7936 17.307 17.0211 17.399 17.2579 17.399C17.4947 17.399 17.7223 17.307 17.8925 17.1424C18.0598 16.9735 18.1536 16.7455 18.1536 16.5078C18.1536 16.2702 18.0598 16.0421 17.8925 15.8732L17.6253 15.6172L20.4531 12.7895C20.7843 12.4595 21.0471 12.0674 21.2264 11.6356C21.4057 11.2039 21.4981 10.741 21.4981 10.2734C21.4981 9.80592 21.4057 9.343 21.2264 8.91124C21.0471 8.47948 20.7843 8.08738 20.4531 7.75743L19.8519 7.15625L25.4628 1.55645C25.6301 1.38759 25.7239 1.15954 25.7239 0.92188C25.7239 0.684219 25.6301 0.456166 25.4628 0.28731ZM19.195 11.5315L16.3673 14.3592L11.3909 9.38282L14.2187 6.55508C14.3833 6.3888 14.5792 6.2568 14.7951 6.16672C15.0111 6.07663 15.2427 6.03025 15.4767 6.03025C15.7107 6.03025 15.9423 6.07663 16.1582 6.16672C16.3742 6.2568 16.5701 6.3888 16.7347 6.55508L19.195 9.01543C19.3613 9.18003 19.4933 9.37596 19.5834 9.59189C19.6735 9.80783 19.7199 10.0395 19.7199 10.2734C19.7199 10.5074 19.6735 10.7391 19.5834 10.955C19.4933 11.1709 19.3613 11.3669 19.195 11.5315ZM24.7837 16.3408C24.7266 16.5199 24.6137 16.676 24.4614 16.7862C24.3091 16.8964 24.1256 16.9549 23.9376 16.9531C23.843 16.9546 23.7488 16.9395 23.6593 16.9086L20.9874 16.018C20.8763 15.9814 20.7735 15.9233 20.6848 15.8471C20.5962 15.7708 20.5234 15.6778 20.4707 15.5734C20.4179 15.4689 20.3863 15.3552 20.3776 15.2385C20.3688 15.1219 20.3831 15.0047 20.4197 14.8936C20.4562 14.7824 20.5143 14.6796 20.5906 14.591C20.6669 14.5023 20.7599 14.4295 20.8643 14.3768C20.9687 14.3241 21.0825 14.2924 21.1991 14.2837C21.3157 14.2749 21.433 14.2892 21.5441 14.3258L24.2159 15.2164C24.3271 15.253 24.4299 15.311 24.5186 15.3873C24.6072 15.4636 24.68 15.5566 24.7327 15.661C24.7855 15.7654 24.8171 15.8792 24.8258 15.9958C24.8346 16.1125 24.8203 16.2297 24.7837 16.3408ZM1.71653 8.65918C1.75308 8.54807 1.81115 8.44524 1.88743 8.35657C1.96372 8.2679 2.05672 8.19512 2.16114 8.1424C2.26555 8.08968 2.37933 8.05803 2.49597 8.04929C2.61261 8.04054 2.72984 8.05485 2.84095 8.09141L5.51282 8.98204C5.71405 9.04818 5.88512 9.18387 5.99532 9.36477C6.10552 9.54566 6.14765 9.75991 6.11413 9.96906C6.08061 10.1782 5.97365 10.3686 5.81244 10.506C5.65123 10.6434 5.44632 10.7188 5.2345 10.7188C5.13984 10.7202 5.04565 10.7052 4.95618 10.6742L2.28431 9.7836C2.17319 9.74706 2.07036 9.68899 1.98169 9.6127C1.89302 9.53641 1.82024 9.44341 1.76752 9.33899C1.7148 9.23458 1.68316 9.1208 1.67441 9.00416C1.66566 8.88752 1.67997 8.77029 1.71653 8.65918ZM8.84153 2.09083C8.80498 1.97971 8.79068 1.86249 8.79943 1.74585C8.80818 1.62921 8.83982 1.51544 8.89255 1.41103C8.94527 1.30662 9.01804 1.21361 9.10671 1.13733C9.19537 1.06104 9.2982 1.00296 9.40931 0.966411C9.6337 0.892596 9.87823 0.910946 10.0891 1.01742C10.3 1.1239 10.4599 1.30979 10.5337 1.53418L11.4243 4.20606C11.4609 4.31717 11.4752 4.43439 11.4665 4.55104C11.4577 4.66768 11.4261 4.78146 11.3734 4.88587C11.3206 4.99028 11.2479 5.08329 11.1592 5.15957C11.0705 5.23586 10.9677 5.29393 10.8566 5.33047C10.7671 5.36141 10.6729 5.37649 10.5783 5.37501C10.3903 5.37675 10.2067 5.31823 10.0545 5.20804C9.90221 5.09785 9.78925 4.94178 9.73216 4.7627L8.84153 2.09083ZM17.6587 22.9092C17.6953 23.0203 17.7096 23.1375 17.7008 23.2542C17.6921 23.3708 17.6605 23.4846 17.6077 23.589C17.555 23.6934 17.4822 23.7864 17.3936 23.8627C17.3049 23.939 17.2021 23.9971 17.0909 24.0336C17.0015 24.0645 16.9073 24.0796 16.8126 24.0781C16.6247 24.0799 16.4411 24.0214 16.2889 23.9112C16.1366 23.801 16.0236 23.6449 15.9665 23.4658L15.0759 20.7939C15.0394 20.6828 15.0251 20.5656 15.0338 20.449C15.0426 20.3323 15.0742 20.2186 15.1269 20.1142C15.1796 20.0097 15.2524 19.9167 15.3411 19.8405C15.4297 19.7642 15.5326 19.7061 15.6437 19.6695C15.7548 19.633 15.872 19.6187 15.9887 19.6274C16.1053 19.6362 16.2191 19.6678 16.3235 19.7205C16.4279 19.7733 16.5209 19.846 16.5972 19.9347C16.6735 20.0234 16.7315 20.1262 16.7681 20.2373L17.6587 22.9092Z" fill="white"/>
</svg>
