<svg width="20" height="20" viewBox="0 0 20 20" fill="none" xmlns="http://www.w3.org/2000/svg">
<path d="M9.70312 15.375C10.0312 15.375 10.3087 15.2616 10.5356 15.0347C10.7619 14.8084 10.875 14.5312 10.875 14.2031C10.875 13.875 10.7619 13.5978 10.5356 13.3716C10.3087 13.1447 10.0312 13.0312 9.70312 13.0312C9.375 13.0312 9.0975 13.1447 8.87062 13.3716C8.64437 13.5978 8.53125 13.875 8.53125 14.2031C8.53125 14.5312 8.64437 14.8084 8.87062 15.0347C9.0975 15.2616 9.375 15.375 9.70312 15.375ZM8.85937 11.7656H10.5937C10.5937 11.25 10.6525 10.8437 10.77 10.5469C10.8869 10.25 11.2187 9.84375 11.7656 9.32812C12.1719 8.92187 12.4922 8.535 12.7266 8.1675C12.9609 7.80062 13.0781 7.35937 13.0781 6.84375C13.0781 5.96875 12.7578 5.29687 12.1172 4.82812C11.4766 4.35937 10.7187 4.125 9.84375 4.125C8.95312 4.125 8.23062 4.35937 7.67625 4.82812C7.12125 5.29687 6.73437 5.85937 6.51562 6.51562L8.0625 7.125C8.14062 6.84375 8.31656 6.53906 8.59031 6.21094C8.86344 5.88281 9.28125 5.71875 9.84375 5.71875C10.3437 5.71875 10.7187 5.85531 10.9687 6.12844C11.2187 6.40219 11.3437 6.70312 11.3437 7.03125C11.3437 7.34375 11.25 7.63656 11.0625 7.90969C10.875 8.18344 10.6406 8.4375 10.3594 8.67187C9.67187 9.28125 9.25 9.74219 9.09375 10.0547C8.9375 10.3672 8.85937 10.9375 8.85937 11.7656ZM9.75 19.125C8.45312 19.125 7.23437 18.8787 6.09375 18.3862C4.95312 17.8944 3.96094 17.2266 3.11719 16.3828C2.27344 15.5391 1.60562 14.5469 1.11375 13.4062C0.62125 12.2656 0.375 11.0469 0.375 9.75C0.375 8.45312 0.62125 7.23437 1.11375 6.09375C1.60562 4.95312 2.27344 3.96094 3.11719 3.11719C3.96094 2.27344 4.95312 1.60531 6.09375 1.11281C7.23437 0.620937 8.45312 0.375 9.75 0.375C11.0469 0.375 12.2656 0.620937 13.4062 1.11281C14.5469 1.60531 15.5391 2.27344 16.3828 3.11719C17.2266 3.96094 17.8944 4.95312 18.3862 6.09375C18.8787 7.23437 19.125 8.45312 19.125 9.75C19.125 11.0469 18.8787 12.2656 18.3862 13.4062C17.8944 14.5469 17.2266 15.5391 16.3828 16.3828C15.5391 17.2266 14.5469 17.8944 13.4062 18.3862C12.2656 18.8787 11.0469 19.125 9.75 19.125Z" fill="#BEBEBE"/>
</svg>
